<svg width="339" height="339" viewBox="0 0 339 339" fill="none" xmlns="http://www.w3.org/2000/svg">
  <path d="M245.668 69.3135L245.668 69.3128C261.145 53.9063 284.322 49.2968 304.613 57.5257V57.5882L304.923 57.7157C325.35 66.1176 338.5 85.6767 338.5 107.554V243.524C338.5 265.401 325.35 284.96 304.923 293.362L304.92 293.363C298.156 296.183 291.074 297.5 284.053 297.5C269.95 297.5 256.102 292.045 245.668 281.701L138.262 175.215L62.4467 100.049C58.0299 95.6701 53.1869 96.7423 50.7401 97.7258C48.2851 98.7125 44.1086 101.379 44.1086 107.554V243.524C44.1086 249.698 48.2851 252.365 50.7401 253.352C53.1869 254.335 58.0299 255.407 62.4467 251.028L121.062 192.915L151.942 223.53L93.3325 281.637C82.8983 291.982 69.0496 297.437 54.9471 297.437C47.9294 297.437 40.8464 296.058 34.0774 293.298C13.65 284.896 0.5 265.337 0.5 243.46V107.491C0.5 85.6135 13.65 66.0543 34.0774 57.6524L34.0779 57.6522C54.4417 49.2504 77.7127 53.8275 93.3325 69.3135L169.148 144.48L169.5 144.829L169.852 144.48L245.668 69.3135ZM200.674 175.025L200.316 175.381L200.674 175.736L276.489 250.902C280.906 255.281 285.749 254.208 288.196 253.225C290.651 252.238 294.828 249.572 294.828 243.397V243.334V107.364C294.828 101.189 290.651 98.5227 288.196 97.536C285.749 96.5525 280.906 95.4803 276.489 99.8593L200.674 175.025Z" fill="#34554E" stroke="#34554E"/>
  <path d="M166.5 251.679L208.718 290.5H124.282L166.5 251.679Z" fill="#34554E" stroke="#34554E"/>
  <path d="M178.223 66.7504C185.848 59.5002 195.345 56.0904 203.357 56.9687C204.291 65.2107 200.633 75.0564 192.82 82.8561C184.949 90.7147 174.898 94.3611 166.561 93.3283L166.5 93.3207L166.439 93.3283C158.102 94.3611 148.051 90.7147 140.18 82.8561L140.179 82.8547C132.368 75.1175 128.709 65.2132 129.643 56.9683C137.595 56.0913 147.092 59.5003 154.779 66.7518L155.59 67.5168L155.622 66.4023C155.924 55.8255 160.219 46.6691 166.501 41.635C172.843 46.6685 177.136 55.8239 177.378 66.3995L177.404 67.5287L178.223 66.7504Z" fill="#34554E" stroke="#34554E"/>
</svg>
